<svg xmlns="http://www.w3.org/2000/svg" xmlns:xlink="http://www.w3.org/1999/xlink" viewBox="0 0 1800 1000"><defs><style>.a,.ac,.ad,.ae,.af,.ag,.ai,.aj,.ak,.al{fill:none;}.b{isolation:isolate;}.c{fill:#4a3985;}.d{fill:#654db3;}.e{fill:#c79419;}.f{fill:#febe20;}.g{fill:#ab8016;}.h{fill:#cf9b1a;}.i,.j,.m,.o{fill:#fff;}.i{opacity:0.3;}.k{fill:#50bfab;}.l,.w{fill:#231f20;}.l{opacity:0.18;}.l,.v,.w{mix-blend-mode:multiply;}.m{opacity:0.15;}.n{fill:#d9a21b;}.o{opacity:0.2;}.p{fill:#48ab99;}.q{fill:#32265c;}.r{fill:#4b3985;}.s{fill:#cc263f;}.t{fill:#ef2d4a;}.u{clip-path:url(#a);}.w{opacity:0.12;}.x{fill:#d49d1b;}.y{fill:#a6a8ab;}.z{fill:#e6e7e8;}.aa{fill:#808184;}.ab{fill:#388779;}.ac,.ag,.ai,.al{stroke:#ef2d4a;}.ac,.ad,.ae,.af,.ag,.ai,.aj,.ak,.al{stroke-miterlimit:10;}.ac{stroke-width:6.67px;}.ad{stroke:#febe20;}.ad,.ae{stroke-width:8.79px;}.ae,.af,.aj,.ak{stroke:#fff;}.af,.ag{stroke-width:10.48px;}.ah{fill:#b58717;}.ai{stroke-width:5.09px;}.aj{stroke-width:7.5px;}.ak{stroke-width:7.88px;}.al{stroke-width:2.98px;}</style><clipPath id="a"><polygon class="a" points="1119.06 655.07 1119.06 417.04 1481.87 417.04 1481.87 655.07 1300.46 655.07 1119.06 655.07"/></clipPath></defs><title>WP Login Graphic</title><g class="b"><rect class="c" x="-5.96" y="-21.14" width="1847.39" height="1039.39"/><path class="d" d="M978.21,259.9c23.88-.36,47.77-0.27,71.66,0,6.07,0.06,8.3-2.12,8.24-8.21q-0.33-35.83,0-71.66c0.05-5.8-1.41-8.45-7.86-8.37-24.27.31-48.55,0.24-72.83,0-5.56,0-7.63,1.89-7.51,7.48,0.28,12.13.09,24.28,0.08,36.42,0,11.75.26,23.5-.11,35.24C969.69,257,971.12,260,978.21,259.9Z"/><path class="d" d="M954.89,463.52c-23.48.2-47,.26-70.44,0-6.59-.08-9,2-8.74,8.74,0.46,11.72.13,23.48,0.13,35.22,0,12.13.24,24.27-.1,36.39-0.17,6,1.81,8.25,8,8.18,24.26-.28,48.53-0.23,72.79,0,5.51,0,7.69-1.74,7.65-7.38-0.18-24.26-.27-48.53,0-72.79C964.35,464.64,960.95,463.47,954.89,463.52Z"/><path class="d" d="M964.25,667.52c0.07-6.51-2-9-8.74-8.94q-35.78.42-71.57,0c-6-.06-8.29,1.78-8.21,8,0.28,23.85.34,47.72,0,71.57-0.11,7.14,3,8.51,9.11,8.34,11.72-.32,23.46-0.09,35.2-0.09s23.47-.25,35.2.1c6.4,0.19,9.14-1.8,9.05-8.62Q963.82,702.72,964.25,667.52Z"/><path class="d" d="M791.46,454.52q34.66-.54,69.33,0c7.62,0.13,9.28-3.1,9.06-9.84-0.37-11.74-.1-23.5-0.11-35.25s-0.25-23.51.1-35.25c0.18-6.18-2.14-8.11-8.2-8-23.5.26-47,.39-70.51-0.06-7.57-.14-9.18,2.76-9.09,9.6q0.49,34.66,0,69.33C781.94,452.14,784.23,454.63,791.46,454.52Z"/><path class="d" d="M1049.86,658.61c-11.73.27-23.46,0.08-35.2,0.08-12.12,0-24.25.16-36.37-.07-5.58-.11-8.64,1-8.55,7.68,0.32,24.24.25,48.5,0,72.74-0.05,5.68,2.11,7.5,7.56,7.47,24.25-.16,48.5-0.2,72.74,0,6.12,0.06,8.23-2.27,8.18-8.28q-0.31-35.78,0-71.57C1058.31,660.44,1055.77,658.48,1049.86,658.61Z"/><path class="d" d="M862.64,561.35q-36.42.33-72.85,0c-6.07-.07-8.17,1.79-8.09,8q0.45,35.83,0,71.67c-0.07,6.16,2,8.26,8.11,8.09,12.13-.34,24.28-0.1,36.42-0.1s24.29-.19,36.42.09c5.6,0.13,7.57-2,7.53-7.52q-0.28-36.42,0-72.85C870.26,563,868.17,561.3,862.64,561.35Z"/><path class="d" d="M769.06,473.57q-36.42.33-72.85,0c-6.07-.07-8.17,1.79-8.09,8q0.45,35.83,0,71.67c-0.07,6.16,2,8.26,8.11,8.09,12.13-.34,24.28-0.1,36.42-0.1s24.29-.19,36.42.09c5.6,0.13,7.57-2,7.53-7.52q-0.28-36.42,0-72.85C776.68,475.27,774.59,473.52,769.06,473.57Z"/><path class="d" d="M956.51,561.36q-36.37.5-72.74,0c-6.2-.07-8.05,2-8,8.1q0.43,35.78,0,71.57c-0.07,6.27,2.26,8,8.21,8,23.86-.23,47.72-0.31,71.57,0,6.81,0.1,8.84-2.33,8.62-8.84-0.39-11.72-.11-23.46-0.11-35.2s-0.19-23.47.08-35.2C964.3,564.19,963.15,561.27,956.51,561.36Z"/><path class="d" d="M883.17,357.21c12.12-.31,24.26-0.09,36.4-0.09s24.27-.25,36.4.11c5.95,0.17,8.34-1.56,8.27-7.87q-0.42-35.81,0-71.62c0.06-6-1.81-8.28-8-8.21-24.26.27-48.53,0.22-72.79,0-5.47,0-7.64,1.68-7.59,7.39q0.33,36.4,0,72.8C875.74,355.28,877.53,357.36,883.17,357.21Z"/><path class="d" d="M1050.68,561.35q-36.42.33-72.85,0c-6.06-.07-8.18,1.77-8.1,8q0.45,35.83,0,71.67c-0.07,6.15,2,8.27,8.1,8.1,12.13-.34,24.28-0.1,36.42-0.1s24.29-.19,36.42.08c5.59,0.13,7.58-1.95,7.54-7.51q-0.28-36.42,0-72.85C1058.3,563.06,1056.22,561.3,1050.68,561.35Z"/><path class="d" d="M1058.25,373.94c0-5.65-2.18-7.4-7.66-7.35q-36.33.31-72.67,0c-6-.06-8.26,1.77-8.19,8q0.42,35.74,0,71.49c-0.07,6.28,2.3,8.1,8.22,7.94,11.71-.32,23.44-0.09,35.16-0.09,12.5,0,25-.18,37.5.08,5.46,0.11,7.68-1.74,7.63-7.39Q1058,410.28,1058.25,373.94Z"/><path class="d" d="M977.77,357.22q36.38-.43,72.76,0c6.63,0.09,7.8-2.82,7.66-8.46-0.28-11.34-.08-22.69-0.08-34,0-12.13-.28-24.26.11-36.38,0.21-6.51-1.81-8.94-8.63-8.84-23.86.35-47.73,0.27-71.59,0-5.95-.06-8.29,1.7-8.21,8q0.43,35.79,0,71.59C969.72,355.2,971.57,357.3,977.77,357.22Z"/><path class="d" d="M1142.13,463.5q-34.63.65-69.28,0c-7.51-.13-9.32,2.75-9,9.63,0.46,11.33.13,22.7,0.13,34.05,0,11.74.32,23.5-.12,35.23-0.26,6.85,1.48,9.75,9,9.6q34.63-.67,69.28,0c7.56,0.15,9.13-2.77,9-9.59q-0.49-34.64,0-69.28C1151.28,466.26,1149.69,463.36,1142.13,463.5Z"/><path class="d" d="M688.11,374c0-5.61-2.1-7.52-7.62-7.39-12.1.29-24.21,0.09-36.32,0.09s-24.22.2-36.32-.09c-5.5-.13-7.68,1.73-7.64,7.36q0.27,36.32,0,72.64c0,5.65,2.17,7.43,7.62,7.39q36.32-.28,72.64,0c5.43,0,7.69-1.7,7.64-7.37Q687.83,410.3,688.11,374Z"/><path class="d" d="M1151.1,606.2c0-12.51-.22-25,0.1-37.52,0.14-5.65-1.91-7.38-7.44-7.33q-36.35.34-72.7,0c-5.75-.06-7.3,2.18-7.25,7.59,0.2,23.84.29,47.69,0,71.53-0.1,6.72,2.15,8.74,8.74,8.65,23.45-.32,46.91-0.36,70.36,0,7,0.11,8.59-2.61,8.37-8.93C1150.82,628.88,1151.1,617.54,1151.1,606.2Z"/><path class="d" d="M1151.23,375.36c0.09-6.51-1.76-8.92-8.59-8.82q-35.2.53-70.41,0c-6.91-.1-8.57,2.54-8.49,8.94q0.44,35.2,0,70.41c-0.07,6.09,1.9,8.31,8,8.14,12.12-.35,24.25-0.1,36.38-0.1,11,0,21.92-.34,32.85.12,7.15,0.31,10.47-1.19,10.27-9.46C1150.76,421.52,1150.93,398.43,1151.23,375.36Z"/><path class="d" d="M1071.6,357.17q35.77-.5,71.54,0c6.25,0.08,8-2.09,7.92-8.09-0.27-23.85-.2-47.7,0-71.54,0-5.11-.94-7.93-7-7.87q-36.36.37-72.72,0c-5.66,0-7.5,2.1-7.38,7.57,0.27,12.11.08,24.24,0.08,36.36,0,11.73.21,23.46-.09,35.18C1063.77,354.5,1065,357.26,1071.6,357.17Z"/><path class="d" d="M1811.07,700.05l4.54-528.44H1235.8q-35,.41-70.09,0c-6-.07-8.22,1.64-8.15,7.91q0.44,36.31,0,72.63c-0.09,6.57,2.72,7.83,8.4,7.69,11.71-.29,23.43-0.09,35.14-0.08s34.15-.26,45.71.1v9.7c-11.29.3-33.6,0.07-44.9,0.07-12.1,0-24.21.25-36.31-.11-6-.18-8.21,1.56-8.13,7.85,0.31,24.2.28,48.41,0,72.62-0.06,5.73,2,7.27,7.46,7.22,23.62-.22,47.24-0.29,70.85,0v9.4c-23.49.25-47,.19-70.48,0-5.19,0-7.87,1.06-7.81,7.06q0.37,36.43,0,72.86c-0.06,5.66,1.9,7.5,7.45,7.36,12.14-.31,24.28-0.1,36.43-0.09,11.47,0,22.94-.17,34.41.07v9.59c-23.32.24-46.65,0.31-70-.05-7-.11-8.61,2.57-8.39,8.93,0.4,11.7.11,23.42,0.12,35.13,0,12.1.23,24.21-.1,36.31-0.16,5.87,1.46,8.3,7.82,8.22q35.25-.46,70.52,0v106.6c-11.55.19-23.1,0.05-34.65,0-11.75,0-23.5.19-35.24-.08-5.64-.13-8.56,1-8.47,7.67,0.33,24.27.27,48.55,0,72.83-0.06,5.71,2,7.46,7.51,7.42q36.41-.29,72.83,0c5.68,0,7.43-2.21,7.39-7.66q-0.15-19.4-.14-38.81h566Z"/><polygon class="e" points="1813.34 838.7 1184.38 838.7 1094.61 793.41 964.67 794 914.6 768.47 961.85 768.35 919 746.62 843.38 747.4 838.18 660.26 1520.04 644.39 1835.77 713.34 1813.34 838.7"/><polygon class="f" points="1497.86 597.29 1497.86 231.38 1640.53 231.38 1752.2 351.24 1752.2 597.29 1497.86 597.29"/><path class="g" d="M1637.92,237.38L1746.2,353.6V591.29H1503.86V237.38h134.06m5.22-12H1491.86V603.29H1758.2V348.88l-115.06-123.5h0Z"/><polygon class="h" points="1642.68 225.38 1758.15 348.89 1642.68 348.89 1642.68 225.38"/><path class="i" d="M1431,423.58l-199.71,199-7.32-7.35,199.71-199C1429.29,410.69,1436.61,418,1431,423.58Z"/><path class="j" d="M1506.69,347.7l-84.43,84.13a5.12,5.12,0,0,1-7.24,0h0a5.12,5.12,0,0,1,0-7.24l84.43-84.13C1501.46,338.45,1508.69,345.7,1506.69,347.7Z"/><path class="k" d="M1506.69,347.7l-71.84,71.59-7.23-7.25,71.84-71.59C1501.46,338.45,1508.69,345.7,1506.69,347.7Z"/><polygon class="j" points="1506.73 347.79 1499.36 340.4 1515.04 332.15 1506.73 347.79"/><polygon class="k" points="1511.75 338.35 1508.83 335.42 1515.04 332.15 1511.75 338.35"/><polygon class="l" points="1506.69 348.06 1434.84 419.64 1431.23 415.84 1503.07 344.26 1506.69 348.06"/><path class="j" d="M1305.77,470.43V368.54h50.46v8.7H1315v31.87h39.67v8.7H1315v52.61h-9.26Z"/><path class="j" d="M1481.43,419.69a52,52,0,0,1-4.11,20.5,53,53,0,0,1-11.84,17.29A55.79,55.79,0,0,1,1406,469.14a54.8,54.8,0,0,1-29.53-29,51.92,51.92,0,0,1-4.07-20.43,52.79,52.79,0,0,1,4.07-20.63,53.55,53.55,0,0,1,11.87-17.43,51.79,51.79,0,0,1,17.48-11.48,58.73,58.73,0,0,1,42.17,0,52.66,52.66,0,0,1,17.52,11.45,53.54,53.54,0,0,1,11.87,17.43A52.77,52.77,0,0,1,1481.43,419.69Zm-54.6,45.17a44.41,44.41,0,0,0,17.13-3.34,45.08,45.08,0,0,0,14.56-9.74,45.63,45.63,0,0,0,0-64.17,43.47,43.47,0,0,0-14.45-9.74,44.84,44.84,0,0,0-17.24-3.34,43.88,43.88,0,0,0-17.06,3.34,45.3,45.3,0,0,0-14.49,9.74,46.55,46.55,0,0,0-9.75,14.72,45.63,45.63,0,0,0,9.75,49.45,43.72,43.72,0,0,0,14.35,9.78A44.31,44.31,0,0,0,1426.83,464.86Z"/><path class="j" d="M1563.76,470.43h-11.27l-35.77-48.58h-5.57v48.58h-9.26V368.54h18.72q16.56,0,24.81,6.89t8.25,20.88q0,11.9-7.06,18.72t-19.45,6.82Zm-52.61-93.81v37.65h9.33q12.94,0,18.06-4.14t5.12-14.09q0-10.51-5.29-15t-17.89-4.45h-9.33Z"/><path class="j" d="M1660.64,394.15A40.57,40.57,0,0,0,1625,374.66q-18.93,0-30.83,12.81t-11.9,33.2a46.64,46.64,0,0,0,3.17,17.19,43.06,43.06,0,0,0,9.22,14.34,40.91,40.91,0,0,0,13.71,9.29,43.59,43.59,0,0,0,16.63,3.1q17.12,0,27.87-10.09t11-26.38h-35.15v-8h45.31v1.11q0,24.36-13.29,38.14t-36.61,13.78q-23.18,0-37.51-14.75t-14.34-38.7a59.36,59.36,0,0,1,3.62-20.77,49.61,49.61,0,0,1,10.44-17A48.42,48.42,0,0,1,1603,370.14a53,53,0,0,1,20.7-3.9q15.52,0,26.58,5.6a39.34,39.34,0,0,1,17.05,16.46Z"/><path class="j" d="M1693.56,470.43V368.54H1744v8.7h-41.2v31.87H1744v8.7h-41.2v43.92H1744v8.7h-50.46Z"/><path class="c" d="M1242.06,488.54c0-12.14.2-24.28-.08-36.42-0.13-5.59,1.94-7.53,7.51-7.48,24.28,0.2,48.56.27,72.83,0,6.46-.08,7.91,2.57,7.86,8.37q-0.31,35.83,0,71.66c0.06,6.1-2.17,8.27-8.24,8.21-23.88-.22-47.77-0.31-71.66,0-7.1.11-8.53-2.86-8.33-9.11C1242.31,512,1242.05,500.29,1242.06,488.54Z"/><path class="c" d="M1668.19,207.93c0-12.14.2-24.28-.08-36.42-0.13-5.59,1.94-7.53,7.51-7.48,24.28,0.2,48.56.27,72.83,0,6.46-.08,7.91,2.57,7.86,8.37q-0.31,35.83,0,71.66c0.06,6.1-2.17,8.27-8.24,8.21-23.88-.22-47.77-0.31-71.66,0-7.1.11-8.53-2.86-8.33-9.11C1668.45,231.44,1668.19,219.68,1668.19,207.93Z"/><path class="j" d="M1707.09,443.31l-77.7,77.42a4.71,4.71,0,0,1-6.66,0h0a4.71,4.71,0,0,1,0-6.66l77.7-77.42C1702.28,434.8,1708.93,441.48,1707.09,443.31Z"/><path class="d" d="M1707.09,443.31L1641,509.19l-6.65-6.68,66.12-65.88C1702.28,434.8,1708.93,441.48,1707.09,443.31Z"/><polygon class="j" points="1707.13 443.4 1700.35 436.6 1714.78 429.01 1707.13 443.4"/><polygon class="d" points="1711.75 434.71 1709.06 432.01 1714.78 429.01 1711.75 434.71"/><polygon class="l" points="1707.09 443.64 1640.98 509.52 1637.65 506.03 1703.77 440.15 1707.09 443.64"/><path class="m" d="M1636.17,515l-29.25,29.14-15.59,1.27,37.7-37.57C1634.45,502.47,1641.59,509.63,1636.17,515Z"/><path class="c" d="M1835.77,632.15h-178l77-64.91a24.47,24.47,0,0,1,24,0Z"/><path class="c" d="M1777.28,611.59h-178l77-64.91a24.47,24.47,0,0,1,24,0Z"/><path class="c" d="M1510.19,572.1l-68.46,56.76H1607.5L1539,572.1C1531.24,565.64,1518,565.64,1510.19,572.1Z"/><path class="c" d="M1425.13,555.09l-89,73.78h215.46l-89-73.78C1452.49,546.68,1435.27,546.68,1425.13,555.09Z"/><path class="d" d="M1518.27,603.07l66.39-53.7a26.23,26.23,0,0,1,33,0l100.24,81.08H1481.65Z"/><path class="d" d="M1573.89,630.45H1408.11l71.7-34.71a25.67,25.67,0,0,1,22.37,0l71.7,34.71"/><path class="d" d="M1887.39,630.45H1721.62l71.9-34.81a25.2,25.2,0,0,1,22,0l71.9,34.81"/><path class="d" d="M1687.65,573.87l-68.46,73.34H1785l-68.46-73.34A19.73,19.73,0,0,0,1687.65,573.87Z"/><polygon class="n" points="962.88 684.72 962.88 770.88 916.5 746.93 916.5 660.78 962.88 684.72"/><polygon class="f" points="1813.34 754.19 1184.38 754.19 1094.61 708.9 964.67 709.5 914.6 683.97 961.85 683.85 919 662.11 843.38 662.9 776.22 628.84 1835.77 628.84 1813.34 754.19"/><ellipse class="o" cx="1458.75" cy="702.45" rx="203" ry="23.11"/><polygon class="k" points="1204.53 709.72 964.49 709.72 913.28 683.75 1137.69 683.75 1204.53 709.72"/><polygon class="n" points="843.38 662.9 843.38 747.4 776.22 713.34 776.22 628.84 843.38 662.9"/><polygon class="p" points="963.69 709.72 963.69 794.26 914.89 769.51 914.89 684.97 963.69 709.72"/><polygon class="n" points="1184.38 754.7 1184.38 838.7 1094.29 793.5 1094.29 709.5 1184.38 754.7"/><path class="c" d="M1649.32,760.28h0A39.75,39.75,0,0,1,1689.07,800v39.32a0,0,0,0,1,0,0H1610a0,0,0,0,1,0,0V799.6A39.32,39.32,0,0,1,1649.32,760.28Z"/><path class="q" d="M1610,839.36V799.6a39.32,39.32,0,0,1,39.32-39.32h0A39.75,39.75,0,0,1,1689.07,800Z"/><path class="j" d="M1612.77,839.1h-79a42.25,42.25,0,0,1-42.2-42.2V728.48a31.76,31.76,0,0,0-31.72-31.72h-75.55V686.27h75.55a42.25,42.25,0,0,1,42.2,42.2V796.9a31.76,31.76,0,0,0,31.72,31.72h79a31.87,31.87,0,0,0,14.45-3.48l0.12-.06,61.49-29.49c0.71,1.41.25,11.51,0.25,11.51l-57.14,27.41A42.4,42.4,0,0,1,1612.77,839.1Z"/><path class="r" d="M1113,492.69h253.34a9.51,9.51,0,0,1,9.51,9.51V672.84a0,0,0,0,1,0,0H1101.76a0,0,0,0,1,0,0V503.94A11.25,11.25,0,0,1,1113,492.69Z"/><polygon class="j" points="1359.31 655.06 1118.31 655.06 1118.31 510.47 1359.31 510.47 1359.31 582.77 1359.31 655.06"/><polygon class="s" points="1472.44 730.78 1196.98 730.78 1101.74 682.87 1101.76 672.84 1472.44 721.55 1472.44 730.78"/><polygon class="t" points="1472.44 721.55 1196.98 721.55 1100.94 672.84 1376.39 672.84 1472.44 721.55"/><path class="t" d="M1224.08,567.21c0-6.6.11-13.21,0-19.8-0.07-3,1.06-4.09,4.08-4.07,13.2,0.11,26.41.14,39.61,0,3.51,0,4.3,1.4,4.28,4.55-0.11,13-.12,13,0,26,0,3.32-14.17,17.49-17.47,17.46-13-.12-13-0.17-26,0-3.86.06-4.64-1.56-4.53-5C1224.22,580,1224.08,573.6,1224.08,567.21Z"/><path class="m" d="M1464.28,717.57c-103.45,0-191.8-9.54-191.8-21.32,0-8.63,47.24-16.06,112-19.41Z"/><g class="u"><g class="v"><path class="w" d="M1380.73,533.66l-0.44-.46,0.37-.37,0.18,0.18,20.81-39.18h0L1386.09,502h0l-23.71,12.48,0.18,0.18L1151.14,725.31a12.82,12.82,0,0,0,0,18.13h0a12.82,12.82,0,0,0,18.13,0l31.09-31,0.44,0.46"/><path class="w" d="M1324.59,536.75l0.18,0.18,20.81-39.18h0L1330,505.92h0l-23.71,12.48,0.18,0.18L1095.08,729.23a12.82,12.82,0,0,0,0,18.13h0a12.82,12.82,0,0,0,18.13,0L1144.71,716h0"/></g><path class="f" d="M1386.45,519.87L1175,730.58a12.82,12.82,0,0,1-18.13,0h0a12.82,12.82,0,0,1,0-18.13L1368.35,501.7C1373.37,496.7,1391.47,514.87,1386.45,519.87Z"/><path class="k" d="M1386.45,519.87l-179.95,179.3L1188.4,681l179.95-179.3C1373.37,496.7,1391.47,514.87,1386.45,519.87Z"/><polygon class="j" points="1386.56 520.11 1368.11 501.59 1407.37 480.93 1386.56 520.11"/><polygon class="k" points="1399.13 496.44 1391.82 489.11 1407.37 480.93 1399.13 496.44"/><path class="f" d="M1330.39,523.79L1118.91,734.5a12.82,12.82,0,0,1-18.13,0h0a12.82,12.82,0,0,1,0-18.13l211.48-210.71C1317.3,500.63,1335.4,518.79,1330.39,523.79Z"/><path class="f" d="M1330.39,523.79l-179.95,179.3-18.1-18.17,179.95-179.3C1317.3,500.63,1335.4,518.79,1330.39,523.79Z"/><polygon class="j" points="1330.49 524.03 1312.04 505.51 1351.3 484.85 1330.49 524.03"/><polygon class="f" points="1343.06 500.37 1335.76 493.03 1351.3 484.85 1343.06 500.37"/><polygon class="w" points="1330.39 523.79 1150.44 703.09 1141.39 693.58 1321.34 514.28 1330.39 523.79"/><polygon class="w" points="1386.46 520.77 1206.51 700.07 1197.46 690.55 1377.41 511.25 1386.46 520.77"/></g><rect class="j" x="1202.92" y="754.19" width="6.45" height="25.6"/><rect class="j" x="1229.35" y="754.19" width="6.45" height="25.6"/><rect class="j" x="1255.77" y="754.19" width="6.45" height="25.6"/><rect class="j" x="1282.2" y="754.19" width="6.45" height="25.6"/><rect class="j" x="1308.63" y="754.19" width="6.45" height="48.13"/><rect class="j" x="1335.05" y="754.19" width="6.45" height="25.6"/><rect class="j" x="1361.48" y="754.19" width="6.45" height="25.6"/><rect class="j" x="1387.91" y="754.19" width="6.45" height="25.6"/><rect class="j" x="1414.34" y="754.19" width="6.45" height="25.6"/><rect class="j" x="1440.76" y="754.19" width="6.45" height="48.13"/><rect class="j" x="1467.19" y="754.19" width="6.45" height="25.6"/><rect class="j" x="1516.12" y="754.19" width="6.45" height="25.6"/><rect class="j" x="1546.47" y="754.19" width="6.45" height="25.6"/><rect class="j" x="1572.9" y="754.19" width="6.45" height="48.13"/><ellipse class="x" cx="1509.04" cy="655.63" rx="26.25" ry="4.19"/><polygon class="j" points="964.97 743.75 918.65 743.75 868.58 718.22 915.83 718.1 964.97 743.75"/><polygon class="y" points="868.58 735.6 918.65 761.13 918.65 743.75 868.58 718.22 868.58 735.6"/><rect class="z" x="918.65" y="743.75" width="45.25" height="17.38"/><polygon class="aa" points="902.66 735.6 868.58 735.6 868.58 718.22 902.66 735.6"/><polygon class="aa" points="924.33 725.93 893.61 725.93 884.92 721.82 916.25 721.74 924.33 725.93"/><polygon class="aa" points="949.85 739.67 917.91 739.67 910.18 735.57 941.52 735.49 949.85 739.67"/><rect class="ab" x="963.69" y="709.72" width="130.92" height="84.54"/><ellipse class="x" cx="1702.35" cy="687.68" rx="56.55" ry="9.04"/><path class="j" d="M1649.09,588.27h82.15A19.79,19.79,0,0,1,1751,608.07v31.18a51,51,0,0,1-51,51h0a51,51,0,0,1-51-51v-51A0,0,0,0,1,1649.09,588.27Z"/><line class="ac" x1="1700.07" y1="588.27" x2="1700.07" y2="506.99"/><path class="ac" d="M1700.07,567.46s-40.83,8.88-40.83-34.69"/><path class="k" d="M1658.28,534.41c6.93-16.3-20.35-20.51-20.35-20.51s4.21,27.28,20.51,20.35"/><path class="k" d="M1659.83,534.41c-6.93-16.3,20.35-20.51,20.35-20.51s-4.21,27.28-20.51,20.35"/><path class="k" d="M1699.29,508c6.93-16.3-20.35-20.51-20.35-20.51s4.21,27.28,20.51,20.35"/><path class="k" d="M1700.84,508c-6.93-16.3,20.35-20.51,20.35-20.51s-4.21,27.28-20.51,20.35"/><path class="c" d="M1343.49,213.93c0-12.14-.08-42.87-0.08-42.87l88.2-.92s-0.22,56,0,79.87c0.06,6.1-2.17,8.27-8.24,8.21-23.88-.22-47.77-0.31-71.66,0-7.1.11-8.53-2.86-8.33-9.11C1343.75,237.44,1343.48,225.68,1343.49,213.93Z"/><circle class="ad" cx="1440.74" cy="284.88" r="48.7"/><circle class="ae" cx="1440.74" cy="284.88" r="31.18"/><path class="t" d="M1547.18,300.6H1334.31A106.43,106.43,0,1,1,1547.18,300.6Z"/><path class="t" d="M1477.24,218h-73A36.5,36.5,0,1,1,1477.24,218Z"/><rect class="t" x="1433.15" y="-7.5" width="15.19" height="201.67"/><path class="c" d="M1575.2,305c0-12.14.2-24.28-.08-36.42-0.13-5.59,1.94-7.53,7.51-7.48,24.28,0.2,48.56.27,72.83,0,6.46-.08,7.91,2.57,7.86,8.37q-0.31,35.83,0,71.66c0.06,6.1-2.17,8.27-8.24,8.21-23.88-.22-47.77-0.31-71.66,0-7.1.11-8.53-2.86-8.33-9.11C1575.46,328.53,1575.19,316.77,1575.2,305Z"/><path class="k" d="M1117.6,512.65c0-6.6.11-13.21,0-19.8-0.07-3,1.06-4.09,4.08-4.07,13.2,0.11,26.41.14,39.61,0,3.51,0,4.3,1.4,4.28,4.55q-0.17,19.48,0,39c0,3.32-1.18,4.5-4.48,4.47-13-.12-26-0.17-39,0-3.86.06-4.64-1.56-4.53-5C1117.74,525.43,1117.6,519,1117.6,512.65Z"/><path class="k" d="M1117.6,458.5c0-6.6.11-13.21,0-19.8-0.07-3,1.06-4.09,4.08-4.07,13.2,0.11,26.41.14,39.61,0,3.51,0,4.3,1.4,4.28,4.55q-0.17,19.48,0,39c0,3.32-1.18,4.5-4.48,4.47-13-.12-26-0.17-39,0-3.86.06-4.64-1.56-4.53-5C1117.74,471.28,1117.6,464.89,1117.6,458.5Z"/><path class="t" d="M1171.27,512.65c0-6.6.11-13.21,0-19.8-0.07-3,1.06-4.09,4.08-4.07,13.2,0.11,26.41.14,39.61,0,3.51,0,4.3,1.4,4.28,4.55q-0.17,19.48,0,39c0,3.32-1.18,4.5-4.48,4.47-13-.12-26-0.17-39,0-3.86.06-4.64-1.56-4.53-5C1171.41,525.43,1171.27,519,1171.27,512.65Z"/><path class="k" d="M1171.27,409.2c0-6.6.11-13.21,0-19.8-0.07-3,1.06-4.09,4.08-4.07,13.2,0.11,26.41.14,39.61,0,3.51,0,4.3,1.4,4.28,4.55q-0.17,19.48,0,39c0,3.32-1.18,4.5-4.48,4.47-13-.12-26-0.17-39,0-3.86.06-4.64-1.56-4.53-5C1171.41,422,1171.27,415.58,1171.27,409.2Z"/><path class="d" d="M1171.27,567.21c0-6.6.11-13.21,0-19.8-0.07-3,1.06-4.09,4.08-4.07,13.2,0.11,26.41.14,39.61,0,3.51,0,4.3,1.4,4.28,4.55q-0.17,19.48,0,39c0,3.32-1.18,4.5-4.48,4.47-13-.12-26-0.17-39,0-3.86.06-4.64-1.56-4.53-5C1171.41,580,1171.27,573.6,1171.27,567.21Z"/><path class="k" d="M1117.6,616c0-6.6.11-13.21,0-19.8-0.07-3,1.06-4.09,4.08-4.07,13.2,0.11,26.41.14,39.61,0,3.51,0,4.3,1.4,4.28,4.55q-0.17,19.48,0,39c0,3.32-1.18,4.5-4.48,4.47-13-.12-26-0.17-39,0-3.86.06-4.64-1.56-4.53-5C1117.74,628.8,1117.6,622.4,1117.6,616Z"/><ellipse class="e" cx="1139.33" cy="782.45" rx="4.19" ry="26.25"/><path class="af" d="M1139.33,791.36l-97.18,0a69.52,69.52,0,0,0-69.75,69.48v156.87"/><path class="ag" d="M1139.33,777.19l-100.28-.32a82.62,82.62,0,0,0-82.89,82.58V1009"/><polygon class="c" points="1621.08 710.11 1537.36 710.11 1444.61 663.8 1444.63 650.96 1621.08 696.48 1621.08 710.11"/><path class="j" d="M1618.15,700.31h-80.08a2.93,2.93,0,0,1-1.32-.32l-90.51-45.91a2.93,2.93,0,0,1,1.32-5.53h80.08a2.93,2.93,0,0,1,1.32.32l90.51,45.91A2.93,2.93,0,0,1,1618.15,700.31Z"/><path class="n" d="M1600.83,695.05H1537a2.33,2.33,0,0,1-1.05-.25l-72.13-36.58a2.33,2.33,0,0,1,1.05-4.41h63.82a2.33,2.33,0,0,1,1.05.25l72.13,36.58A2.33,2.33,0,0,1,1600.83,695.05Z"/><path class="ah" d="M1529.26,653.81v37.61l-65.88-33.27s-2.48-3.36,1.24-4.34S1529.26,653.81,1529.26,653.81Z"/><line class="ai" x1="1038.15" y1="694.98" x2="1038.15" y2="618.14"/><path class="ai" d="M1038.15,664.29S1007,671.07,1007,637.82"/><path class="k" d="M1006.26,639.07c5.29-12.44-15.53-15.65-15.53-15.65s3.21,20.81,15.65,15.53"/><path class="k" d="M1007.45,639.07c-5.29-12.44,15.53-15.65,15.53-15.65s-3.21,20.81-15.65,15.53"/><path class="k" d="M1037.56,618.94c5.29-12.44-15.53-15.65-15.53-15.65s3.21,20.81,15.65,15.53"/><path class="k" d="M1038.74,618.94c-5.29-12.44,15.53-15.65,15.53-15.65s-3.21,20.81-15.65,15.53"/><rect class="j" x="1282.99" y="213.42" width="5.26" height="15.08" transform="translate(2038.45 1286.28) rotate(-135)"/><rect class="j" x="1195.61" y="300.81" width="5.26" height="15.08" transform="translate(1827.48 1373.67) rotate(-135)"/><rect class="j" x="1239.3" y="195.32" width="5.26" height="15.08" transform="translate(2483.86 405.73) rotate(180)"/><rect class="j" x="1239.3" y="318.9" width="5.26" height="15.08" transform="translate(2483.86 652.89) rotate(180)"/><rect class="j" x="1195.61" y="213.42" width="5.26" height="15.08" transform="translate(2201.76 -470.07) rotate(135)"/><rect class="j" x="1282.99" y="300.81" width="5.26" height="15.08" transform="translate(2412.73 -382.69) rotate(135)"/><rect class="j" x="1301.09" y="257.11" width="5.26" height="15.08" transform="translate(1568.38 -1039.06) rotate(90)"/><line class="aj" x1="1519.35" y1="418.48" x2="1481.43" y2="418.48"/><line class="ak" x1="1671.6" y1="424.25" x2="1574.97" y2="424.25"/><path class="j" d="M1795.86,240.12L1672.74,362.79a7.47,7.47,0,0,1-10.56,0h0a7.47,7.47,0,0,1,0-10.56l123.12-122.68C1788.24,226.63,1798.78,237.21,1795.86,240.12Z"/><path class="t" d="M1795.86,240.12L1691.1,344.5l-10.54-10.58,104.76-104.39C1788.24,226.63,1798.78,237.21,1795.86,240.12Z"/><path class="i" d="M1673.25,363.36L1488.06,548.6,1477.54,538,1662.73,352.8C1670.72,344.83,1681.25,355.39,1673.25,363.36Z"/><polygon class="j" points="1795.92 240.26 1785.18 229.48 1808.04 217.45 1795.92 240.26"/><polygon class="t" points="1803.24 226.48 1798.99 222.21 1808.04 217.45 1803.24 226.48"/><polygon class="l" points="1795.86 240.64 1691.1 345.03 1685.83 339.49 1790.59 235.1 1795.86 240.64"/><line class="al" x1="1569.3" y1="570.49" x2="1569.3" y2="525.6"/><path class="al" d="M1569.3,552.56s-18.2,4-18.2-15.46"/><path class="k" d="M1550.67,537.83c3.09-7.26-9.07-9.14-9.07-9.14s1.88,12.16,9.14,9.07"/><path class="k" d="M1551.36,537.83c-3.09-7.26,9.07-9.14,9.07-9.14s-1.88,12.16-9.14,9.07"/><path class="k" d="M1569,526.07c3.09-7.26-9.07-9.14-9.07-9.14s1.88,12.16,9.14,9.07"/><path class="k" d="M1569.65,526.07c-3.09-7.26,9.07-9.14,9.07-9.14s-1.88,12.16-9.14,9.07"/><path class="k" d="M1504.8,679l-10.48-5.21V615.23a64.35,64.35,0,0,0-64.21-63.15h-0.17a64.25,64.25,0,0,0-45.53,19l-83.94,84h-15.12L1377,563.66a74.66,74.66,0,0,1,52.91-22.06h0.2a74.83,74.83,0,0,1,74.69,73.53V679Z"/><path class="t" d="M1519.12,686.27L1508.64,681V611.78a77.46,77.46,0,0,0-77.3-76h-0.21a77.34,77.34,0,0,0-54.81,22.85l-96,96.46h-14.86L1368.9,551.2a87.77,87.77,0,0,1,62.2-25.93h0.24a87.94,87.94,0,0,1,87.78,86.42v74.58Z"/><polygon class="c" points="1243.21 312.35 1237.65 264.29 1246.21 264.29 1243.21 312.35"/></g></svg>