<svg xmlns="http://www.w3.org/2000/svg" viewBox="0 0 201 31.2"><defs><style>.cls-1{fill:#472874;}</style></defs><title>Asset 1</title><g id="Layer_2" data-name="Layer 2"><g id="Icons"><path class="cls-1" d="M80.06,8.09h2.72a.48.48,0,0,1,.48.49v2.94a.47.47,0,0,1-.48.48H80.06a.09.09,0,0,0-.08.09v6.75c0,1.42.66,1.89,1.92,1.89a7.26,7.26,0,0,0,.83-.05.48.48,0,0,1,.53.48V23.9a.47.47,0,0,1-.33.46,7.26,7.26,0,0,1-2.15.28c-3.19,0-5.18-1.89-5.18-5V12.09a.08.08,0,0,0-.08-.09H72.81a.48.48,0,0,1-.48-.48V8.58a.49.49,0,0,1,.48-.49h2.71A.07.07,0,0,0,75.6,8V3.7a.48.48,0,0,1,.49-.48H79.5A.48.48,0,0,1,80,3.7V8A.08.08,0,0,0,80.06,8.09Z"/><path class="cls-1" d="M0,23.92V.88A.48.48,0,0,1,.48.4H3.86a.47.47,0,0,1,.48.48V9.62a.08.08,0,0,0,.15.05,6,6,0,0,1,4.79-2c4.78,0,7.53,3.68,7.53,8.52s-3,8.62-7.69,8.62a5.61,5.61,0,0,1-4.69-2.16.08.08,0,0,0-.15,0v1.24a.49.49,0,0,1-.49.49H.48A.49.49,0,0,1,0,23.92ZM8.36,11.61c-2.23,0-4.08,1.62-4.08,4.61s1.85,4.64,4.08,4.64,4-1.66,4-4.64S10.61,11.61,8.36,11.61Z"/><path class="cls-1" d="M28.41,11.9a.48.48,0,0,1-.55.48,7,7,0,0,0-.77,0c-2.26,0-4.21,1.09-4.21,4.61v7a.49.49,0,0,1-.49.49H19a.48.48,0,0,1-.48-.49V8.58A.48.48,0,0,1,19,8.09h3.31a.48.48,0,0,1,.48.49v1.6a.08.08,0,0,0,.15,0A5,5,0,0,1,27.39,8L28,8a.49.49,0,0,1,.44.49Z"/><path class="cls-1" d="M32.65,0a2.72,2.72,0,1,1-2.72,2.75A2.71,2.71,0,0,1,32.65,0ZM30.46,23.92V8.58a.48.48,0,0,1,.48-.49h3.44a.49.49,0,0,1,.49.49V23.92a.49.49,0,0,1-.49.49H30.94A.48.48,0,0,1,30.46,23.92Z"/><path class="cls-1" d="M40.57,24.37a.49.49,0,0,1,.59.34,3.65,3.65,0,0,0,3.7,2.61c2.79,0,4.35-1.39,4.35-4.54v-.93a.08.08,0,0,0-.15-.05,5.32,5.32,0,0,1-4.4,1.88c-4.34,0-7.59-3.35-7.59-7.93a7.66,7.66,0,0,1,7.59-8c2.39,0,3.85,1,4.5,2a.08.08,0,0,0,.15,0V8.58a.48.48,0,0,1,.48-.49h3.28a.49.49,0,0,1,.48.49V22.65c0,4.48-2.42,8.55-8.55,8.55-4.26,0-7.16-2.51-7.84-5.43a.48.48,0,0,1,.35-.58Zm8.7-8.62a3.89,3.89,0,1,0-7.76,0,3.81,3.81,0,0,0,3.92,4.15C47.68,19.9,49.27,18.27,49.27,15.75Z"/><path class="cls-1" d="M60.12,24.41H56.68a.49.49,0,0,1-.48-.49V.88A.48.48,0,0,1,56.68.4h3.44a.48.48,0,0,1,.49.48V9.24a.08.08,0,0,0,.14,0A6,6,0,0,1,65,7.66c4.15,0,6.07,2.89,6.07,6.47v9.79a.49.49,0,0,1-.49.49H67.16a.49.49,0,0,1-.48-.49v-9c0-1.82-.9-3.25-3-3.25a3,3,0,0,0-3,3.18v9.1A.49.49,0,0,1,60.12,24.41Z"/><path class="cls-1" d="M95.92,15l4-.59c.93-.14,1.23-.6,1.23-1.17,0-1.16-.9-2.12-2.75-2.12a2.9,2.9,0,0,0-3,2.19.47.47,0,0,1-.56.36l-3-.63a.49.49,0,0,1-.38-.57c.49-2.41,2.82-4.9,6.92-4.9,5.18,0,7.1,2.92,7.1,6.21v8c0,.64.06,1.45.12,2.05a.48.48,0,0,1-.48.54H102a.49.49,0,0,1-.48-.43c0-.38-.08-.86-.09-1.28a.08.08,0,0,0-.14,0,5.5,5.5,0,0,1-4.67,2.21c-3.48,0-5.6-2.35-5.6-4.91C91.05,17,93.2,15.42,95.92,15Zm5.24,2.79v-.64a.08.08,0,0,0-.09-.08l-3.59.55a2.06,2.06,0,0,0-2,2.06,1.91,1.91,0,0,0,2.12,1.89C99.44,21.59,101.16,20.69,101.16,17.81Z"/><path class="cls-1" d="M111.05,24.37a.49.49,0,0,1,.59.34,3.67,3.67,0,0,0,3.71,2.61c2.79,0,4.34-1.39,4.34-4.54v-.93a.08.08,0,0,0-.14-.05,5.33,5.33,0,0,1-4.4,1.88c-4.34,0-7.59-3.35-7.59-7.93a7.65,7.65,0,0,1,7.59-8c2.39,0,3.84,1,4.5,2a.07.07,0,0,0,.14,0V8.58a.49.49,0,0,1,.49-.49h3.27a.49.49,0,0,1,.49.49V22.65c0,4.48-2.42,8.55-8.56,8.55-4.25,0-7.16-2.51-7.83-5.43a.48.48,0,0,1,.34-.58Zm8.71-8.62a3.89,3.89,0,1,0-7.76,0,3.81,3.81,0,0,0,3.91,4.15C118.17,19.9,119.76,18.27,119.76,15.75Z"/><path class="cls-1" d="M141.21,19.59a.48.48,0,0,1,.31.64,7.37,7.37,0,0,1-7.26,4.67c-4.48,0-8.42-3.21-8.42-8.72,0-5.2,3.84-8.59,8-8.59,5,0,8.06,3.22,8.06,8.46,0,.39,0,.8,0,1.06a.33.33,0,0,1-.33.3H130.27a.08.08,0,0,0-.08.09,4,4,0,0,0,4.1,3.62,3.59,3.59,0,0,0,3.56-2.1.47.47,0,0,1,.57-.26Zm-3.81-5.2a.17.17,0,0,0,.17-.17,3.28,3.28,0,0,0-3.64-3,3.53,3.53,0,0,0-3.63,3,.16.16,0,0,0,.16.18Z"/><path class="cls-1" d="M147.44,24.41H144a.49.49,0,0,1-.48-.49V8.58a.49.49,0,0,1,.48-.49h3.31a.49.49,0,0,1,.49.49V9.84a.07.07,0,0,0,.14,0,5.51,5.51,0,0,1,4.57-2.22c4,0,5.9,2.89,5.9,6.47v9.79a.49.49,0,0,1-.49.49h-3.44a.48.48,0,0,1-.48-.49v-9c0-1.82-.9-3.25-3-3.25a3.07,3.07,0,0,0-3,3.38v8.9A.49.49,0,0,1,147.44,24.41Z"/><path class="cls-1" d="M164.24,16.25c0,2.95,1.92,4.61,4.18,4.61A3.7,3.7,0,0,0,172,18.53a.49.49,0,0,1,.6-.28l3,1a.48.48,0,0,1,.31.62,7.6,7.6,0,0,1-7.48,5,8.44,8.44,0,0,1-8.59-8.65,8.36,8.36,0,0,1,8.46-8.66,7.5,7.5,0,0,1,7.52,5,.49.49,0,0,1-.31.62l-3.05,1a.48.48,0,0,1-.6-.29,3.51,3.51,0,0,0-3.47-2.31C166.13,11.67,164.24,13.3,164.24,16.25Z"/><path class="cls-1" d="M178,8.09h3.47a.48.48,0,0,1,.48.49v7.17a3.81,3.81,0,0,0,3.91,4.15c2.25,0,3.47-1.63,3.47-4.15l0-5.74V8.58a.49.49,0,0,1,.49-.49h3.27a.49.49,0,0,1,.49.49V22.65c0,4.48-2.42,8.55-8.56,8.55-4.25,0-7.16-2.51-7.83-5.43a.48.48,0,0,1,.34-.58l3.06-.82a.49.49,0,0,1,.59.34,3.67,3.67,0,0,0,3.71,2.61c2.79,0,4.34-1.39,4.34-4.54v-.56a6,6,0,0,1-4.16,1.46,7.55,7.55,0,0,1-7.6-7.93V8.58A.49.49,0,0,1,178,8.09Z"/><path class="cls-1" d="M198.28,19.06a2.72,2.72,0,1,1-2.72,2.75A2.72,2.72,0,0,1,198.28,19.06Z"/></g></g></svg>